:SAMPLES-PER-SECOND 30
:FULLY-SPECIFIED
:DEGREES
144
root  23.883 37.9126 -27.2689 -24.5386 -79.8269 20.4529
RightUpLeg  -17.7635 -13.0476 -8.97744
RightLeg  -0.368577 -20.449 8.79247
RightFoot  2.7857 -2.59523 20.8684
RightToes  0.000482159 0.542163 -0.142577
Spine  24.727 0.341968 -5.82681
Spine1  14.7528 -1.1947 0.586995
HEad  19.6878 13.0606 -4.56854
LeftShoulder1  6.87868 -14.067 -33.1041
LeftArm  -11.8893 -32.2489 -41.8948
LeftForeArm  6.29152 -34.2481 -7.29193
LeftHand  -0.25398 0.0180481 5.50724
RightShoulder  4.9519 10.4137 29.6073
RightArm  -6.12253 24.8941 41.0376
RightForeArm  -37.6367 48.7388 14.975
RightHand  -0.711478 -0.798608 -17.8525
LeftUpLeg  -6.13117 2.98966 -5.00316
LeftLeg  35.7012 5.13355 4.33843
LeftFoot  -22.4137 -0.0162323 -1.47448
LeftToes  1.06247e-005 4.65854e-005 -8.18501e-006
145
root  25.5166 37.6789 -27.4395 -27.2242 -79.6937 23.5633
RightUpLeg  -20.1092 -15.1763 -9.3553
RightLeg  1.51969 -19.5616 8.25621
RightFoot  -0.568817 -2.31736 24.0273
RightToes  0.000482159 0.542163 -0.142577
Spine  25.2337 0.481986 -6.57496
Spine1  14.6745 -0.522914 -1.42011
HEad  19.409 16.5225 -4.98608
LeftShoulder1  6.77585 -13.8741 -32.9486
LeftArm  -13.498 -33.5312 -41.3056
LeftForeArm  6.40712 -33.4998 -7.08257
LeftHand  -0.25398 0.0180481 5.50724
RightShoulder  5.10503 10.6895 30.0018
RightArm  -6.67397 24.8298 41.731
RightForeArm  -36.1903 50.136 15.6435
RightHand  -0.839264 -0.225627 -18.8031
LeftUpLeg  -10.5298 3.72149 -6.05845
LeftLeg  37.8681 5.56147 5.00018
LeftFoot  -21.309 0.152354 0.268347
LeftToes  1.06247e-005 4.65854e-005 -8.18501e-006
146
root  27.1378 37.6879 -27.593 -25.9867 -80.6784 22.3806
RightUpLeg  -25.019 -22.1048 -4.76893
RightLeg  9.96293 -9.60535 4.24784
RightFoot  -1.62642 -1.7789 20.6423
RightToes  0.000482159 0.542163 -0.142577
Spine  26.1473 0.68405 -5.22649
Spine1  14.6445 0.695218 -3.67055
HEad  19.3649 20.4031 -5.83002
LeftShoulder1  6.70093 -13.6784 -32.9575
LeftArm  -14.2782 -34.5533 -40.8987
LeftForeArm  6.63627 -33.0366 -6.94577
LeftHand  -0.25398 0.0180481 5.50724
RightShoulder  5.24614 10.8703 30.5384
RightArm  -7.22432 24.3562 42.08
RightForeArm  -34.7301 51.1646 16.1456
RightHand  -0.801247 -0.443371 -18.688
LeftUpLeg  -13.9517 4.90475 -5.49434
LeftLeg  38.7169 4.82879 4.53106
LeftFoot  -18.7455 0.138637 0.397676
LeftToes  1.06247e-005 4.65854e-005 -8.18501e-006
147
root  28.6497 37.8643 -27.8008 -24.5595 -82.3548 20.7054
RightUpLeg  -29.9858 -27.6585 1.30389
RightLeg  20.8422 2.76488 0.131781
RightFoot  -1.44125 -1.43043 16.2946
RightToes  0.000482159 0.542163 -0.142577
Spine  27.0442 1.15884 -3.86514
Spine1  14.5311 2.14986 -5.67775
HEad  19.6057 24.9707 -6.82947
LeftShoulder1  6.61513 -13.3495 -33.2095
LeftArm  -14.8337 -34.8203 -40.3193
LeftForeArm  7.43609 -33.3887 -6.9936
LeftHand  -0.25398 0.0180481 5.50724
RightShoulder  5.43598 11.1672 31.0983
RightArm  -7.31849 23.743 42.4845
RightForeArm  -33.413 51.0471 16.0261
RightHand  -0.642119 -1.11102 -17.2139
LeftUpLeg  -15.7662 6.85077 -4.4455
LeftLeg  37.2663 4.1646 3.77403
LeftFoot  -15.9498 0.134336 1.01566
LeftToes  1.06247e-005 4.65854e-005 -8.18501e-006
148
root  30.0106 38.1207 -28.1029 -21.6997 -83.4232 17.899
RightUpLeg  -29.7203 -20.0737 -1.54468
RightLeg  30.9406 -0.907344 -0.823238
RightFoot  -1.99165 -1.21257 14.5914
RightToes  0.000482159 0.542163 -0.142577
Spine  27.4922 1.60703 -3.46593
Spine1  14.0476 3.17882 -7.08945
HEad  20.1069 29.8032 -7.42283
LeftShoulder1  6.4924 -12.9109 -33.5087
LeftArm  -15.5358 -34.2783 -39.7604
LeftForeArm  8.75992 -34.2743 -7.15429
LeftHand  -0.25398 0.0180481 5.50724
RightShoulder  5.69882 11.6281 31.7101
RightArm  -6.96676 22.8204 42.9413
RightForeArm  -32.0625 50.0216 15.4065
RightHand  -0.536315 -1.31349 -15.1202
LeftUpLeg  -17.0701 8.18412 -3.68303
LeftLeg  34.5927 4.06523 3.37594
LeftFoot  -12.6495 0.10078 2.20239
LeftToes  1.06247e-005 4.65854e-005 -8.18501e-006
149
root  31.2817 38.4729 -28.4498 -14.053 -83.508 10.7863
RightUpLeg  -29.0535 -17.3096 -2.24199
RightLeg  39.1697 -3.05825 -2.95827
RightFoot  -3.22145 -0.992028 13.5923
RightToes  0.000482159 0.542163 -0.142577
Spine  27.5658 1.80617 -2.95808
Spine1  13.2758 3.7658 -8.05425
HEad  20.7167 34.0717 -7.30403
LeftShoulder1  6.38719 -12.5564 -33.7249
LeftArm  -15.8419 -33.3871 -39.5166
LeftForeArm  10.0537 -35.1303 -7.31201
LeftHand  -0.25398 0.0180481 5.50724
RightShoulder  5.93111 12.0182 32.262
RightArm  -6.53123 21.2881 43.2779
RightForeArm  -30.9853 48.9458 14.7984
RightHand  -0.572301 -0.600394 -13.8029
LeftUpLeg  -18.2598 8.43097 -2.85014
LeftLeg  30.9794 3.88413 2.87455
LeftFoot  -8.41752 -0.015588 2.6992
LeftToes  1.06247e-005 4.65854e-005 -8.18501e-006
150
root  32.4727 38.8291 -28.8005 -5.79713 -83.0501 3.06403
RightUpLeg  -27.3604 -16.0293 -2.35455
RightLeg  45.6255 -5.11882 -5.88261
RightFoot  -4.03413 -0.767736 11.5655
RightToes  0.000482159 0.542163 -0.142577
Spine  27.3501 1.91088 -1.99751
Spine1  12.5471 4.37895 -9.13496
HEad  21.2545 37.4666 -6.75001
LeftShoulder1  6.35016 -12.3625 -33.9753
LeftArm  -15.3278 -32.5458 -39.4712
LeftForeArm  11.0501 -35.7735 -7.43163
LeftHand  -0.25398 0.0180481 5.50724
RightShoulder  6.04301 12.1778 32.5859
RightArm  -6.06163 19.2472 43.4635
RightForeArm  -30.8308 48.292 14.4665
RightHand  -0.670327 0.304237 -13.6956
LeftUpLeg  -18.82 8.82497 -1.94486
LeftLeg  26.5118 2.80222 1.87002
LeftFoot  -4.17574 -0.137346 2.59005
LeftToes  1.06247e-005 4.65854e-005 -8.18501e-006
151
root  33.5829 39.046 -29.1586 -2.53011 -82.5061 -0.0227509
RightUpLeg  -24.3915 -14.8685 -2.77983
RightLeg  50.4322 -5.60498 -7.55641
RightFoot  -4.48482 -0.632044 10.0217
RightToes  0.000482159 0.542163 -0.142577
Spine  26.8331 2.12709 -1.40104
Spine1  12.1205 5.13208 -10.4614
HEad  21.8169 40.3163 -6.10818
LeftShoulder1  6.35069 -12.2068 -34.3705
LeftArm  -14.4583 -31.6164 -39.4354
LeftForeArm  12.019 -36.3996 -7.55015
LeftHand  -0.25398 0.0180481 5.50724
RightShoulder  6.0971 12.2281 32.8056
RightArm  -5.28832 16.9875 43.4508
RightForeArm  -31.4053 47.9779 14.3399
RightHand  -0.715427 0.611134 -13.9063
LeftUpLeg  -18.8186 10.0688 -1.59209
LeftLeg  22.0331 0.933688 0.763071
LeftFoot  -0.660811 -0.245396 2.65908
LeftToes  1.06247e-005 4.65854e-005 -8.18501e-006
152
root  34.6433 39.0943 -29.5335 -3.80144 -81.7666 1.12282
RightUpLeg  -20.1572 -13.749 -3.71438
RightLeg  53.3171 -4.65656 -7.06846
RightFoot  -5.39262 -0.552374 9.90534
RightToes  0.000482159 0.542163 -0.142577
Spine  26.0654 2.39311 -1.54675
Spine1  11.9308 5.74683 -11.6169
HEad  22.7355 42.9065 -5.3358
LeftShoulder1  6.34113 -12.0064 -34.8237
LeftArm  -13.9139 -30.2693 -39.5598
LeftForeArm  13.2424 -37.2035 -7.70654
LeftHand  -0.25398 0.0180481 5.50724
RightShoulder  6.1921 12.3336 33.1457
RightArm  -4.29135 14.5689 43.1379
RightForeArm  -31.7068 47.9062 14.3188
RightHand  -0.696259 0.530854 -13.7108
LeftUpLeg  -18.8337 11.257 -1.8552
LeftLeg  18.4124 -0.821092 -0.0566864
LeftFoot  2.58138 -0.330266 2.58975
LeftToes  1.06247e-005 4.65854e-005 -8.18501e-006
153
root  35.6775 39.0039 -29.9111 -5.73573 -80.6875 2.65773
RightUpLeg  -15.0661 -13.1911 -4.56441
RightLeg  54.5255 -3.62928 -5.8756
RightFoot  -6.41225 -0.470686 9.89406
RightToes  0.000482159 0.542163 -0.142577
Spine  25.0855 2.6087 -1.77314
Spine1  11.9191 6.15056 -12.2674
HEad  24.0292 45.1742 -4.38217
LeftShoulder1  6.33251 -11.8319 -35.2248
LeftArm  -13.7402 -28.5901 -40.0428
LeftForeArm  14.6778 -38.2071 -7.91249
LeftHand  -0.25398 0.0180481 5.50724
RightShoulder  6.29814 12.4603 33.4977
RightArm  -3.63168 11.9981 42.7014
RightForeArm  -31.1606 48.1338 14.4047
RightHand  -0.6903 0.682651 -13.2765
LeftUpLeg  -19.0859 11.1673 -1.9444
LeftLeg  16.0276 -1.4945 -0.737882
LeftFoot  5.62915 -0.315489 1.88864
LeftToes  1.06247e-005 4.65854e-005 -8.18501e-006
154
root  36.7117 38.799 -30.2841 -7.54138 -79.4819 3.78693
RightUpLeg  -9.4591 -13.3513 -5.22214
RightLeg  54.3793 -3.21461 -5.22253
RightFoot  -6.41287 -0.465825 9.76281
RightToes  0.000482159 0.542163 -0.142577
Spine  23.8691 2.82876 -1.78093
Spine1  12.309 6.56137 -12.6178
HEad  25.3575 47.0142 -3.42731
LeftShoulder1  6.35258 -11.75 -35.5706
LeftArm  -13.5861 -26.9839 -40.7414
LeftForeArm  16.1436 -39.3305 -8.15933
LeftHand  -0.25398 0.0180481 5.50724
RightShoulder  6.32942 12.4797 33.6444
RightArm  -3.70961 9.51656 42.5026
RightForeArm  -30.1742 48.6253 14.6013
RightHand  -0.709631 1.02652 -12.9483
LeftUpLeg  -19.4042 10.4326 -1.91009
LeftLeg  14.4239 -1.70656 -1.37676
LeftFoot  7.94235 -0.246777 1.15951
LeftToes  1.06247e-005 4.65854e-005 -8.18501e-006
